<?xml version="1.0" encoding="UTF-8" standalone="no"?>
<!-- Created with Inkscape (http://www.inkscape.org/) -->

<svg
   width="16"
   height="12"
   viewBox="0 0 16 12"
   version="1.1"
   id="svg1"
   sodipodi:docname="deco_audio_v01.svg"
   inkscape:version="1.4.2 (ebf0e940, 2025-05-08)"
   xmlns:inkscape="http://www.inkscape.org/namespaces/inkscape"
   xmlns:sodipodi="http://sodipodi.sourceforge.net/DTD/sodipodi-0.dtd"
   xmlns="http://www.w3.org/2000/svg"
   xmlns:svg="http://www.w3.org/2000/svg">
  <sodipodi:namedview
     id="namedview1"
     pagecolor="#ffffff"
     bordercolor="#000000"
     borderopacity="0.25"
     inkscape:showpageshadow="2"
     inkscape:pageopacity="0.0"
     inkscape:pagecheckerboard="0"
     inkscape:deskcolor="#d1d1d1"
     showgrid="true"
     inkscape:zoom="47.518296"
     inkscape:cx="7.8706527"
     inkscape:cy="5.3032205"
     inkscape:current-layer="svg1">
    <inkscape:grid
       id="grid1"
       units="px"
       originx="0"
       originy="0"
       spacingx="1"
       spacingy="1"
       empcolor="#0099e5"
       empopacity="0.30196078"
       color="#0099e5"
       opacity="0.14901961"
       empspacing="2"
       enabled="true"
       visible="true" />
  </sodipodi:namedview>
  <defs
     id="defs1" />
  <path
     id="rect6"
     style="paint-order:markers fill stroke;stroke-opacity:0.795367;fill:{Accent};opacity:0.25;"
     d="M 5 5 L 5 6 L 6 6 L 6 5 L 5 5 z M 7 5 L 7 6 L 8 6 L 8 5 L 7 5 z M 9 5 L 9 6 L 10 6 L 10 5 L 9 5 z "
     inkscape:label="Base" />
  <path
     id="rect5"
     style="paint-order:markers fill stroke;stroke-opacity:0.795367;fill:{Accent};opacity:0.75;"
     d="M 6 3 L 6 8 L 7 8 L 7 3 L 6 3 z M 4 4 L 4 7 L 5 7 L 5 4 L 4 4 z M 8 4 L 8 7 L 9 7 L 9 4 L 8 4 z M 10 5 L 10 6 L 11 6 L 11 5 L 10 5 z "
     inkscape:label="Wave" />
</svg>
