<?xml version="1.0" encoding="UTF-8" standalone="no"?>
<!-- Created with Inkscape (http://www.inkscape.org/) -->

<svg
   width="16"
   height="12"
   viewBox="0 0 16 12"
   version="1.1"
   id="svg1"
   xmlns:xlink="http://www.w3.org/1999/xlink"
   xmlns="http://www.w3.org/2000/svg"
   xmlns:svg="http://www.w3.org/2000/svg">
  <defs
     id="defs1">
    <linearGradient
       id="linearGradient13">
      <stop
         style="stop-color:#000000;stop-opacity:1"
         offset="0.22594611"
         id="stop13" />
      <stop
         style="stop-color:#ffffff;stop-opacity:1"
         offset="1"
         id="stop14" />
    </linearGradient>
    <linearGradient
       id="linearGradient7">
      <stop
         style="stop-color:#000000;stop-opacity:1;"
         offset="0.26666668"
         id="stop7" />
      <stop
         style="stop-color:#ffffff;stop-opacity:1;"
         offset="0.78562093"
         id="stop8" />
    </linearGradient>
    <linearGradient
       xlink:href="#linearGradient7"
       id="linearGradient8"
       x1="7.5"
       y1="10"
       x2="7.5"
       y2="1"
       gradientUnits="userSpaceOnUse" />
    <linearGradient
       xlink:href="#linearGradient13"
       id="linearGradient14"
       x1="7.2899809"
       y1="4.3838215"
       x2="7.7828865"
       y2="5.351203"
       gradientUnits="userSpaceOnUse"
       spreadMethod="reflect" />
  </defs>
  <rect
     style="paint-order:markers fill stroke;stroke-opacity:0.795367;fill:{Shadow};opacity:0.125;"
     id="rect3"
     width="9"
     height="1"
     x="4"
     y="11" />
  <path
     id="rect1"
     style="paint-order:markers fill stroke;stroke-opacity:0.795367;fill-opacity:1;fill:{Shadow};opacity:0.25;display:inline;"
     d="M 3 0 L 3 1 L 4 1 L 4 0 L 3 0 z M 1 1 L 1 12 L 2 12 L 2 1 L 1 1 z M 13 1 L 13 11 L 13 12 L 14 12 L 14 1 L 13 1 z M 15 1 L 15 12 L 16 12 L 16 1 L 15 1 z M 3 2 L 3 3 L 3 9 L 4 9 L 4 3 L 12 3 L 12 2 L 4 2 L 3 2 z M 3 10 L 3 11 L 3 12 L 4 12 L 4 11 L 12 11 L 12 10 L 3 10 z " />
  <rect
     style="paint-order:markers fill stroke;stroke-opacity:0.795367;fill-opacity:1;fill:{Mid};opacity:0.75;display:inline;"
     id="rect2"
     width="9"
     height="11"
     x="3"
     y="0" />
  <path
     d="M 0,0 V 11 H 1 V 10 H 2 V 11 H 3 V 10.5 C 3,10.223 3.223,10 3.5,10 H 11.5 C 11.777,10 12,10.223 12,10.5 V 11 H 13 V 10 H 14 V 11 H 15 V 0 H 14 V 1 H 13 V 0 H 12 V 0.5 C 12,0.777 11.777,1 11.5,1 H 3.5 C 3.223,1 3,0.777 3,0.5 V 0 H 2 V 1 H 1 V 0 Z M 1,2 H 2 V 3 H 1 Z M 3.5,2 H 11.5 C 11.777,2 12,2.223 12,2.5 V 8.5 C 12,8.777 11.777,9 11.5,9 H 3.5 C 3.223,9 3,8.777 3,8.5 V 2.5 C 3,2.223 3.223,2 3.5,2 Z M 13,2 H 14 V 3 H 13 Z M 1,4 H 2 V 5 H 1 Z M 13,4 H 14 V 5 H 13 Z M 1,6 H 2 V 7 H 1 Z M 13,6 H 14 V 7 H 13 Z M 1,8 H 2 V 9 H 1 Z M 13,8 H 14 V 9 H 13 Z"
     style="paint-order:markers fill stroke;stroke-opacity:0.795367;fill-opacity:1;fill:{ButtonText};"
     id="path69" />
  <path
     id="rect10"
     style="paint-order:markers fill stroke;stroke-opacity:0.795367;stroke-width:0.999995;fill:{ButtonText};opacity:1;"
     d="M 5.25,4 C 4.5575,4 4,4.5575 4,5.25 V 5.75 C 4,6.4425 4.5575,7 5.25,7 H 6.75 C 7.031861,7 7.2913572,6.9081807 7.5,6.7519531 7.5,6.7519531 8,6.25 8,5.75 V 5.25 C 8,5.1115 8.1115,5 8.25,5 H 9.75 C 9.8885,5 10,5.1115 10,5.25 V 5.75 C 10,5.8885 9.8885,6 9.75,6 H 8.25 C 7.9623413,6 8,7 8.25,7 H 9.75 C 10.4425,7 11,6.4425 11,5.75 V 5.25 C 11,4.5575 10.4425,4 9.75,4 H 8.25 C 8.0198529,4 7.8039568,4.0604562 7.6191406,4.1679688 7.1405317,4.4019415 7,4.7981807 7,5.25 V 5.75 C 7,5.8885 6.8885,6 6.75,6 H 5.25 C 5.1115,6 5,5.8885 5,5.75 V 5.25 C 5,5.1115 5.1115,5 5.25,5 H 6.75 C 6.751082,5 6.7548006,5.0001211 6.7558594,5 6.756895,4.9997597 6.7607061,4.9984045 6.7617188,4.9980469 6.7627086,4.9975739 6.766611,4.9947271 6.7675781,4.9941406 6.8771534,4.9131622 6.8342952,4.0848846 6.7597656,4.0039062 L 6.7578125,4.0019531 H 6.7558594 L 6.7539062,4 H 6.7519531 6.75 Z" />
  <path
     id="rect10-1"
     style="stroke-width:0.999995;stroke-opacity:0.795367;paint-order:markers fill stroke;fill:url(#linearGradient14);opacity:0.15870307;fill-opacity:1"
     d="M 5.25,4 C 4.5575,4 4,4.5575 4,5.25 V 5.75 C 4,6.4425 4.5575,7 5.25,7 H 6.75 C 7.031861,7 7.2913572,6.9081807 7.5,6.7519531 7.5,6.7519531 8,6.25 8,5.75 V 5.25 C 8,5.1115 8.1115,5 8.25,5 H 9.75 C 9.8885,5 10,5.1115 10,5.25 V 5.75 C 10,5.8885 9.8885,6 9.75,6 H 8.25 C 7.9623413,6 8,7 8.25,7 H 9.75 C 10.4425,7 11,6.4425 11,5.75 V 5.25 C 11,4.5575 10.4425,4 9.75,4 H 8.25 C 8.0198529,4 7.8039568,4.0604562 7.6191406,4.1679688 7.1405317,4.4019415 7,4.7981807 7,5.25 V 5.75 C 7,5.8885 6.8885,6 6.75,6 H 5.25 C 5.1115,6 5,5.8885 5,5.75 V 5.25 C 5,5.1115 5.1115,5 5.25,5 H 6.75 C 6.751082,5 6.7548006,5.0001211 6.7558594,5 6.756895,4.9997597 6.7607061,4.9984045 6.7617188,4.9980469 6.7627086,4.9975739 6.766611,4.9947271 6.7675781,4.9941406 6.8771534,4.9131622 6.8342952,4.0848846 6.7597656,4.0039062 L 6.7578125,4.0019531 H 6.7558594 L 6.7539062,4 H 6.7519531 6.75 Z" />
</svg>
