<?xml version="1.0" encoding="UTF-8" standalone="no"?>
<!-- Created with Inkscape (http://www.inkscape.org/) -->

<svg
   width="16"
   height="12"
   viewBox="0 0 16 12"
   version="1.1"
   id="svg1"
   xmlns="http://www.w3.org/2000/svg"
   xmlns:svg="http://www.w3.org/2000/svg">
  <defs
     id="defs1" />
  <path
     id="rect1-0-0-2-3"
     style="paint-order:markers fill stroke;stroke-opacity:0.795367;stroke-width:0.999999;fill:{Shadow};opacity:0.25;"
     d="M 3 2 L 3 10 L 3 10.5 L 12 10.5 L 14 10.5 L 14 10 L 14 2.5 L 12 2.5 L 12 2 L 3 2 z M 1 2.5 L 1 3 L 1 9.5 A 1 1 0 0 0 2 10.5 L 2 10 L 2 3 L 2 2.5 L 1 2.5 z M 15 2.5 L 15 10 L 15 10.5 A 1 1 0 0 0 16 9.5 L 16 3 A 0.5 0.5 0 0 0 15.5 2.5 L 15 2.5 z M 4 9.5 L 13 9.5 L 13 10 L 4 10 L 4 9.5 z " />
  <rect
     style="paint-order:markers fill stroke;stroke-opacity:0.795367;fill:{Shadow};opacity:0.15;"
     id="rect1"
     width="9"
     height="0.5"
     x="4"
     y="9.5" />
  <path
     id="rect3"
     style="paint-order:markers fill stroke;stroke-opacity:0.795367;fill:{Shadow};opacity:0.25;"
     d="M 3,2.5 V 3 9 H 4 V 3 H 12 V 2.5 H 4 Z" />
  <rect
     style="paint-order:markers fill stroke;stroke-opacity:0.795367;stroke-width:1;fill-opacity:1;fill:{Mid};opacity:0.75;"
     id="rect2"
     width="9"
     height="8"
     x="3"
     y="1.5" />
  <path
     id="path69"
     style="paint-order:markers fill stroke;stroke-opacity:0.795367;fill-opacity:1;fill:{ButtonText};"
     d="M 1 1.5 A 1 1 0 0 0 0 2.5 L 0 8.5 A 1 1 0 0 0 1 9.5 L 1 9 L 1 8 L 2 8 L 2 9 L 2 9.5 L 13 9.5 L 13 9 L 13 8 L 14 8 L 14 9 L 14 9.5 A 1 1 0 0 0 15 8.5 L 15 2.5 A 1 1 0 0 0 14 1.5 L 14 2 L 14 3 L 13 3 L 13 2 L 13 1.5 L 2 1.5 L 2 2 L 2 3 L 1 3 L 1 2 L 1 1.5 z M 3.5 2 L 11.5 2 C 11.777 2 12 2.223 12 2.5 L 12 8.5 C 12 8.777 11.777 9 11.5 9 L 3.5 9 C 3.223 9 3 8.777 3 8.5 L 3 2.5 C 3 2.223 3.223 2 3.5 2 z M 1 4 L 2 4 L 2 5 L 1 5 L 1 4 z M 13 4 L 14 4 L 14 5 L 13 5 L 13 4 z M 1 6 L 2 6 L 2 7 L 1 7 L 1 6 z M 13 6 L 14 6 L 14 7 L 13 7 L 13 6 z " />
</svg>
