<?xml version="1.0" encoding="UTF-8" standalone="no"?>
<!-- Created with Inkscape (http://www.inkscape.org/) -->

<svg
   width="14"
   height="11"
   viewBox="0 0 14 11"
   version="1.1"
   id="svg1"
   xmlns="http://www.w3.org/2000/svg"
   xmlns:svg="http://www.w3.org/2000/svg">
  <defs
     id="defs1" />
  <rect
     style="fill:#ffffff;fill-opacity:0.5;paint-order:markers fill stroke"
     id="rect21"
     width="13"
     height="10"
     x="0.5"
     y="0.5"
     rx="1.5"
     ry="1.5" />
  <path
     d="M 3,2 C 2.446,2 2,2.446 2,3 v 7 c 0,0.554 0.446,1 1,1 h 10 c 0.554,0 1,-0.446 1,-1 V 3 C 14,2.446 13.554,2 13,2 Z M 3,3 H 4 V 4 H 3 Z m 9,0 h 1 V 4 H 12 Z M 3,5 H 4 V 6 H 3 Z m 9,0 h 1 V 6 H 12 Z M 3,7 H 4 V 8 H 3 Z m 9,0 h 1 V 8 H 12 Z M 3,9 h 1 v 1 H 3 Z m 9,0 h 1 v 1 h -1 z"
     style="fill:#000000;fill-opacity:0.25;paint-order:markers fill stroke"
     id="path20-3" />
  <path
     d="M 2,1 C 1.446,1 1,1.446 1,2 v 7 c 0,0.554 0.446,1 1,1 h 10 c 0.554,0 1,-0.446 1,-1 V 2 C 13,1.446 12.554,1 12,1 Z M 2,2 H 3 V 3 H 2 Z m 9,0 h 1 V 3 H 11 Z M 2,4 H 3 V 5 H 2 Z m 9,0 h 1 V 5 H 11 Z M 2,6 H 3 V 7 H 2 Z m 9,0 h 1 V 7 H 11 Z M 2,8 H 3 V 9 H 2 Z m 9,0 h 1 v 1 h -1 z"
     style="paint-order:markers fill stroke;fill:#000000;fill-opacity:0.5"
     id="path20" />
  <path
     d="M 1,0 C 0.446,0 0,0.446 0,1 v 7 c 0,0.554 0.446,1 1,1 h 10 c 0.554,0 1,-0.446 1,-1 V 1 C 12,0.446 11.554,0 11,0 Z M 1,1 H 2 V 2 H 1 Z m 9,0 h 1 V 2 H 10 Z M 1,3 H 2 V 4 H 1 Z m 9,0 h 1 V 4 H 10 Z M 1,5 H 2 V 6 H 1 Z m 9,0 h 1 V 6 H 10 Z M 1,7 H 2 V 8 H 1 Z m 9,0 h 1 v 1 h -1 z"
     style="paint-order:markers fill stroke"
     id="path20-0" />
</svg>
