<?xml version="1.0" encoding="UTF-8" standalone="no"?>
<!-- Created with Inkscape (http://www.inkscape.org/) -->

<svg
   width="16"
   height="12"
   viewBox="0 0 16 12"
   version="1.1"
   id="svg1"
   xmlns="http://www.w3.org/2000/svg"
   xmlns:svg="http://www.w3.org/2000/svg">
  <defs
     id="defs1" />
  <g
     id="layer3" />
  <g
     id="layer2">
    <path
       d="M 2,1 C 1.446,1 1,1.446 1,2 v 7 c 0,0.554 0.446,1 1,1 h 12 c 0.554,0 1,-0.446 1,-1 V 2 C 15,1.446 14.554,1 14,1 Z M 2,2 H 3 V 3 H 2 Z m 2,0 h 8 V 9 H 4 Z m 9,0 h 1 V 3 H 13 Z M 2,4 H 3 V 5 H 2 Z m 11,0 h 1 V 5 H 13 Z M 2,6 H 3 V 7 H 2 Z m 11,0 h 1 V 7 H 13 Z M 2,8 H 3 V 9 H 2 Z m 11,0 h 1 v 1 h -1 z"
       style="stroke-width:0.999988;stroke-linecap:round;stroke-linejoin:round;paint-order:markers stroke fill"
       id="path1" />
    <path
       d="m 4,2 v 7 h 8 V 2 Z"
       style="fill:#ffffff;stroke-width:0.999995;stroke-linecap:round;stroke-linejoin:round;paint-order:markers stroke fill;fill-opacity:0.15000001"
       id="path3" />
  </g>
  <g
     id="layer1">
    <path
       d="M 2,2 V 3 H 3 V 2 Z"
       style="fill:#ffffff;stroke-linecap:round;stroke-linejoin:round;paint-order:markers stroke fill;fill-opacity:0.15000001"
       id="path2" />
    <path
       d="M 2,4 V 5 H 3 V 4 Z"
       style="fill:#ffffff;stroke-linecap:round;stroke-linejoin:round;paint-order:markers stroke fill;fill-opacity:0.15000001"
       id="path5" />
    <path
       d="M 2,6 V 7 H 3 V 6 Z"
       style="fill:#ffffff;stroke-linecap:round;stroke-linejoin:round;paint-order:markers stroke fill;fill-opacity:0.15000001"
       id="path7" />
    <path
       d="M 2,8 V 9 H 3 V 8 Z"
       style="fill:#ffffff;stroke-linecap:round;stroke-linejoin:round;paint-order:markers stroke fill;fill-opacity:0.15000001"
       id="path9" />
    <path
       d="m 13,2 v 1 h 1 V 2 Z"
       style="fill:#ffffff;stroke-linecap:round;stroke-linejoin:round;paint-order:markers stroke fill;fill-opacity:0.15000001"
       id="path4" />
    <path
       d="m 13,4 v 1 h 1 V 4 Z"
       style="fill:#ffffff;stroke-linecap:round;stroke-linejoin:round;paint-order:markers stroke fill;fill-opacity:0.15000001"
       id="path6" />
    <path
       d="m 13,6 v 1 h 1 V 6 Z"
       style="fill:#ffffff;stroke-linecap:round;stroke-linejoin:round;paint-order:markers stroke fill;fill-opacity:0.15000001"
       id="path8" />
    <path
       d="m 13,8 v 1 h 1 V 8 Z"
       style="fill:#ffffff;stroke-linecap:round;stroke-linejoin:round;paint-order:markers stroke fill;fill-opacity:0.15000001"
       id="path10" />
  </g>
</svg>
