<?xml version="1.0" encoding="UTF-8" standalone="no"?>
<!-- Created with Inkscape (http://www.inkscape.org/) -->

<svg
   width="16"
   height="12"
   viewBox="0 0 16 12"
   version="1.1"
   id="svg1"
   xmlns="http://www.w3.org/2000/svg"
   xmlns:svg="http://www.w3.org/2000/svg">
  <defs
     id="defs1" />
  <path
     id="rect24"
     style="paint-order:markers fill stroke;stroke-opacity:0.795367;stroke-width:1;fill-opacity:1;opacity:0.25"
     d="M 15 1 C 14.446 1 14 1.446 14 2 L 14 10 L 2 10 C 1.446 10 1 10.446 1 11 C 1 11.554 1.446 12 2 12 L 15 12 C 15.554 12 16 11.554 16 11 L 16 2 C 16 1.446 15.554 1 15 1 z " />
  <g
     id="layer1" />
  <rect
     style="fill:#1a1a1a;fill-opacity:1;stroke-opacity:0.795367;paint-order:markers fill stroke"
     id="rect23-5"
     width="15"
     height="11"
     x="-23.5"
     y="-0.5"
     rx="1"
     ry="1" />
  <rect
     style="fill:#008080;fill-opacity:1;stroke-width:0.999991;stroke-opacity:0.795367;paint-order:markers fill stroke"
     id="rect17-7"
     width="13"
     height="4"
     x="-22.5"
     y="0.5"
     rx="0.5"
     ry="0.5" />
  <rect
     style="fill:#000080;fill-opacity:1;stroke-width:1;stroke-opacity:0.795367;paint-order:markers fill stroke"
     id="rect18-4"
     width="9.5"
     height="2"
     x="-22.5"
     y="5"
     ry="0.5"
     rx="0.5" />
  <rect
     style="fill:#0000ff;fill-opacity:1;stroke-width:1;stroke-opacity:0.795367;paint-order:markers fill stroke"
     id="rect19-8"
     width="3"
     height="2"
     x="-12.5"
     y="5"
     ry="0.5"
     rx="0.5" />
  <rect
     style="fill:#0000ff;fill-opacity:1;stroke-opacity:0.795367;paint-order:markers fill stroke"
     id="rect20-0"
     width="5.5"
     height="2"
     x="-22.5"
     y="7.5"
     ry="0.5"
     rx="0.5" />
  <rect
     style="fill:#000080;fill-opacity:1;stroke-width:0.999995;stroke-opacity:0.795367;paint-order:markers fill stroke"
     id="rect21-6"
     width="7"
     height="2"
     x="-16.5"
     y="7.5"
     ry="0.5"
     rx="0.5" />
  <rect
     style="fill:#1a1a1a;fill-opacity:1;stroke-opacity:0.795367;paint-order:markers fill stroke"
     id="rect23-8"
     width="15"
     height="11"
     x="-34"
     y="-2"
     rx="1"
     ry="1" />
  <rect
     style="fill:#008080;fill-opacity:1;stroke-width:0.999991;stroke-opacity:0.795367;paint-order:markers fill stroke"
     id="rect17-3"
     width="13"
     height="4"
     x="-33"
     y="-1"
     rx="0.99999994"
     ry="1" />
  <rect
     style="fill:#000080;fill-opacity:1;stroke-opacity:0.795367;paint-order:markers fill stroke"
     id="rect18-5"
     width="10"
     height="2"
     x="-33"
     y="3.5"
     ry="1"
     rx="1" />
  <rect
     style="fill:#0000ff;fill-opacity:1;stroke-width:1;stroke-opacity:0.795367;paint-order:markers fill stroke"
     id="rect19-6"
     width="3"
     height="2"
     x="-23"
     y="3.5"
     ry="1"
     rx="1" />
  <rect
     style="fill:#0000ff;fill-opacity:1;stroke-opacity:0.795367;paint-order:markers fill stroke"
     id="rect20-8"
     width="6"
     height="2"
     x="-33"
     y="6"
     ry="1"
     rx="1" />
  <rect
     style="fill:#000080;fill-opacity:1;stroke-width:0.999995;stroke-opacity:0.795367;paint-order:markers fill stroke"
     id="rect21-8"
     width="7"
     height="2"
     x="-27"
     y="6"
     ry="1"
     rx="1" />
  <rect
     style="paint-order:markers fill stroke;stroke-opacity:0.795367;fill-opacity:1;fill:{Accent};opacity:0.1;"
     id="rect25"
     width="13"
     height="4"
     x="1"
     y="1" />
  <rect
     style="paint-order:markers fill stroke;stroke-opacity:0.795367;stroke-width:1;fill-opacity:1;fill:{Accent};opacity:0.2;"
     id="rect25-8"
     width="13"
     height="4.5"
     x="1"
     y="5.5" />
  <path
     id="rect23"
     style="paint-order:markers fill stroke;stroke-opacity:0.795367;fill-opacity:1;fill:{ButtonText};opacity:1;"
     d="M 1 0 C 0.446 0 0 0.446 0 1 L 0 10 C 0 10.554 0.446 11 1 11 L 14 11 C 14.554 11 15 10.554 15 10 L 15 1 C 15 0.446 14.554 0 14 0 L 1 0 z M 1.5 1 L 13.5 1 C 13.777 1 14 1.223 14 1.5 L 14 4.5 C 14 4.777 13.777 5 13.5 5 L 1.5 5 C 1.223 5 1 4.777 1 4.5 L 1 1.5 C 1 1.223 1.223 1 1.5 1 z M 1.5 5.5 L 10 5.5 C 10.277 5.5 10.5 5.723 10.5 6 L 10.5 7 C 10.5 7.277 10.277 7.5 10 7.5 L 1.5 7.5 C 1.223 7.5 1 7.277 1 7 L 1 6 C 1 5.723 1.223 5.5 1.5 5.5 z M 11.5 5.5 L 13.5 5.5 C 13.777 5.5 14 5.723 14 6 L 14 7 C 14 7.277 13.777 7.5 13.5 7.5 L 11.5 7.5 C 11.223 7.5 11 7.277 11 7 L 11 6 C 11 5.723 11.223 5.5 11.5 5.5 z M 1.5 8 L 6 8 C 6.277 8 6.5 8.223 6.5 8.5 L 6.5 9.5 C 6.5 9.777 6.277 10 6 10 L 1.5 10 C 1.223 10 1 9.777 1 9.5 L 1 8.5 C 1 8.223 1.223 8 1.5 8 z M 7.5 8 L 13.5 8 C 13.777 8 14 8.223 14 8.5 L 14 9.5 C 14 9.777 13.777 10 13.5 10 L 7.5 10 C 7.223 10 7 9.777 7 9.5 L 7 8.5 C 7 8.223 7.223 8 7.5 8 z " />
</svg>
