<?xml version="1.0" encoding="UTF-8" standalone="no"?>
<!-- Created with Inkscape (http://www.inkscape.org/) -->

<svg
   width="16"
   height="12"
   viewBox="0 0 16 12"
   version="1.1"
   id="svg1"
   xmlns="http://www.w3.org/2000/svg"
   xmlns:svg="http://www.w3.org/2000/svg">
  <defs
     id="defs1" />
  <path
     id="rect33"
     style="paint-order:markers fill stroke;stroke-opacity:0.795367;fill-opacity:1;fill:{Shadow};opacity:0.25;"
     d="M 1 1 L 1 2 L 16 2 L 16 1 L 1 1 z M 1 3 L 1 4 L 4 4 L 4 8 L 5 8 L 5 4 L 12 4 L 12 8 L 13 8 L 13 4 L 16 4 L 16 3 L 1 3 z M 1 9 L 1 10 L 16 10 L 16 9 L 1 9 z M 1 11 L 1 12 L 16 12 L 16 11 L 1 11 z " />
  <rect
     style="paint-order:markers fill stroke;stroke-opacity:0.795367;fill-opacity:1;fill:{Mid};opacity:0.75;"
     id="rect38"
     width="15"
     height="5"
     x="0"
     y="3" />
  <path
     id="rect23"
     style="paint-order:markers fill stroke;stroke-opacity:0.795367;stroke-width:0.999995;fill-opacity:1;fill:{ButtonText};opacity:1;"
     d="M 0,0 V 1 H 1 V 2 H 0 V 3 H 2.5 A 0.5,0.5 45 0 1 3,3.5 V 7.5 A 0.5,0.5 135 0 1 2.5,8 H 0 V 9 H 1 V 10 H 0 V 11 H 15 V 10 H 14 V 9 H 15 V 8 H 12.5 A 0.5,0.5 45 0 1 12,7.5 V 3.5 A 0.5,0.5 135 0 1 12.5,3 H 15 V 2 H 14 V 1 H 15 V 0 Z M 2,1 H 3 V 2 H 2 Z M 4,1 H 5 V 2 H 4 Z M 6,1 H 7 V 2 H 6 Z M 8,1 H 9 V 2 H 8 Z M 10,1 H 11 V 2 H 10 Z M 12,1 H 13 V 2 H 12 Z M 4.5,3 H 10.5 A 0.5,0.5 45 0 1 11,3.5 V 7.5 A 0.5,0.5 135 0 1 10.5,8 H 4.5 A 0.5,0.5 45 0 1 4,7.5 V 3.5 A 0.5,0.5 135 0 1 4.5,3 Z M 2,9 H 3 V 10 H 2 Z M 4,9 H 5 V 10 H 4 Z M 6,9 H 7 V 10 H 6 Z M 8,9 H 9 V 10 H 8 Z M 10,9 H 11 V 10 H 10 Z M 12,9 H 13 V 10 H 12 Z" />
</svg>
