<?xml version="1.0" encoding="UTF-8" standalone="no"?>
<!-- Created with Inkscape (http://www.inkscape.org/) -->

<svg
   width="16"
   height="12"
   viewBox="0 0 16 12"
   version="1.1"
   id="svg1"
   xmlns="http://www.w3.org/2000/svg"
   xmlns:svg="http://www.w3.org/2000/svg">
  <defs
     id="defs1" />
  <g
     id="layer3" />
  <g
     id="layer2">
    <rect
       style="fill:#000000;fill-opacity:1;stroke-width:0.999988;stroke-linecap:round;stroke-linejoin:round;paint-order:markers stroke fill"
       id="rect2"
       width="14"
       height="9"
       x="1"
       y="1"
       ry="1"
       rx="0.99999994" />
    <rect
       style="fill:#ffffff;fill-opacity:1;stroke-width:0.999995;stroke-linecap:round;stroke-linejoin:round;paint-order:markers stroke fill"
       id="rect3"
       width="8"
       height="7"
       x="4"
       y="2"
       rx="0"
       ry="0" />
  </g>
  <g
     id="layer1">
    <rect
       style="fill:#ffffff;stroke-linecap:round;stroke-linejoin:round;paint-order:markers stroke fill"
       id="rect1"
       width="1"
       height="1"
       x="2"
       y="2"
       rx="1.3877788e-16"
       ry="1.3877788e-16" />
    <rect
       style="fill:#ffffff;stroke-linecap:round;stroke-linejoin:round;paint-order:markers stroke fill"
       id="rect1-7"
       width="1"
       height="1"
       x="2"
       y="4"
       rx="1.3877788e-16"
       ry="1.3877788e-16" />
    <rect
       style="fill:#ffffff;stroke-linecap:round;stroke-linejoin:round;paint-order:markers stroke fill"
       id="rect1-5"
       width="1"
       height="1"
       x="2"
       y="6"
       rx="1.3877788e-16"
       ry="1.3877788e-16" />
    <rect
       style="fill:#ffffff;stroke-linecap:round;stroke-linejoin:round;paint-order:markers stroke fill"
       id="rect1-7-6"
       width="1"
       height="1"
       x="2"
       y="8"
       rx="1.3877788e-16"
       ry="1.3877788e-16" />
    <rect
       style="fill:#ffffff;stroke-linecap:round;stroke-linejoin:round;paint-order:markers stroke fill"
       id="rect1-1"
       width="1"
       height="1"
       x="13"
       y="2"
       rx="1.3877788e-16"
       ry="1.3877788e-16" />
    <rect
       style="fill:#ffffff;stroke-linecap:round;stroke-linejoin:round;paint-order:markers stroke fill"
       id="rect1-7-2"
       width="1"
       height="1"
       x="13"
       y="4"
       rx="1.3877788e-16"
       ry="1.3877788e-16" />
    <rect
       style="fill:#ffffff;stroke-linecap:round;stroke-linejoin:round;paint-order:markers stroke fill"
       id="rect1-5-9"
       width="1"
       height="1"
       x="13"
       y="6"
       rx="1.3877788e-16"
       ry="1.3877788e-16" />
    <rect
       style="fill:#ffffff;stroke-linecap:round;stroke-linejoin:round;paint-order:markers stroke fill"
       id="rect1-7-6-3"
       width="1"
       height="1"
       x="13"
       y="8"
       rx="1.3877788e-16"
       ry="1.3877788e-16" />
  </g>
</svg>
