<?xml version="1.0" encoding="UTF-8" standalone="no"?>
<!-- Created with Inkscape (http://www.inkscape.org/) -->

<svg
   width="24"
   height="18"
   viewBox="0 0 24 18"
   version="1.1"
   id="svg1"
   sodipodi:docname="item_masterclip_v07_themed.svg"
   inkscape:version="1.4.2 (ebf0e940d0, 2025-05-08)"
   xmlns:inkscape="http://www.inkscape.org/namespaces/inkscape"
   xmlns:sodipodi="http://sodipodi.sourceforge.net/DTD/sodipodi-0.dtd"
   xmlns="http://www.w3.org/2000/svg"
   xmlns:svg="http://www.w3.org/2000/svg">
  <sodipodi:namedview
     id="namedview1"
     pagecolor="#505050"
     bordercolor="#eeeeee"
     borderopacity="1"
     inkscape:showpageshadow="0"
     inkscape:pageopacity="0"
     inkscape:pagecheckerboard="true"
     inkscape:deskcolor="#505050"
     showgrid="true"
     inkscape:zoom="38.006989"
     inkscape:cx="-0.43413067"
     inkscape:cy="5.3279674"
     inkscape:window-width="3840"
     inkscape:window-height="2136"
     inkscape:window-x="0"
     inkscape:window-y="0"
     inkscape:window-maximized="1"
     inkscape:current-layer="svg1">
    <inkscape:grid
       id="grid1"
       units="px"
       originx="0"
       originy="0"
       spacingx="1"
       spacingy="1"
       empcolor="#0099e5"
       empopacity="0.30196078"
       color="#0099e5"
       opacity="0.14901961"
       empspacing="2"
       enabled="true"
       visible="true" />
  </sodipodi:namedview>
  <defs
     id="defs1" />
  <path
     d="m 22,2 v 12 c 0,1.108 -0.892,2 -2,2 H 18 16 6 4 2 c 0,1.108 0.892,2 2,2 h 18 c 1.108,0 2,-0.892 2,-2 V 4 C 24,2.892 23.108,2 22,2 Z"
     style="fill-opacity:0.320463;stroke-opacity:0.795367;paint-order:markers fill stroke"
     id="path3" />
  <path
     d="M 6,16 V 2 H 4 V 4 H 2 V 6 H 4 V 8 H 2 v 2 h 2 v 2 H 2 v 2 h 2 v 2 z"
     style="stroke-width:0.999994;stroke-opacity:0.795367;paint-order:markers fill stroke"
     id="path7" />
  <path
     d="M 22,2 H 20 V 4 H 18 V 2 h -2 v 14 h 2 v -2 h 2 v 2 c 1.108,0 2,-0.892 2,-2 z m -4,4 h 2 v 2 h -2 z m 0,4 h 2 v 2 h -2 z"
     style="stroke-width:0.999994;stroke-opacity:0.795367;paint-order:markers fill stroke"
     id="path4" />
  <path
     d="M 2,0 C 0.89200007,0 0,0.892 0,2 v 12 c 0,1.108 0.89200007,2 2,2 V 14 12 10 8 6 4 2 h 2 2 10 2 2 2 C 22,0.892 21.108,0 20,0 Z"
     style="stroke-width:0.999994;stroke-opacity:0.795367;paint-order:markers fill stroke"
     id="path2" />
  <path
     id="path12"
     style="fill:#ffffff;stroke-linecap:round;stroke-linejoin:round;paint-order:markers stroke fill;fill-opacity:0.25"
     d="M 2 2 L 2 4 L 4 4 L 4 2 L 2 2 z " />
  <path
     d="m 18,2 v 2 h 2 V 2 Z"
     style="fill:#ffffff;stroke-linecap:round;stroke-linejoin:round;paint-order:markers stroke fill;fill-opacity:0.25"
     id="path13" />
  <path
     d="M 2,8 H 4 V 6 H 2 Z"
     style="fill:#ffffff;stroke-linecap:round;stroke-linejoin:round;paint-order:markers stroke fill;fill-opacity:0.25"
     id="path10" />
  <path
     d="m 18,6 v 2 h 2 V 6 Z"
     style="fill:#ffffff;stroke-linecap:round;stroke-linejoin:round;paint-order:markers stroke fill;fill-opacity:0.25"
     id="path14" />
  <path
     d="M 2,12 H 4 V 10 H 2 Z"
     style="fill:#ffffff;stroke-linecap:round;stroke-linejoin:round;paint-order:markers stroke fill;fill-opacity:0.25"
     id="path9" />
  <path
     d="m 18,10 v 2 h 2 v -2 z"
     style="fill:#ffffff;stroke-linecap:round;stroke-linejoin:round;paint-order:markers stroke fill;fill-opacity:0.25"
     id="path15" />
  <path
     d="M 4,16 V 14 H 2 v 2 z"
     style="fill:#ffffff;stroke-linecap:round;stroke-linejoin:round;paint-order:markers stroke fill;fill-opacity:0.25"
     id="path8" />
  <path
     d="m 20,16 v -2 h -2 v 2 z"
     style="fill:#ffffff;stroke-linecap:round;stroke-linejoin:round;paint-order:markers stroke fill;fill-opacity:0.25"
     id="path5" />
  <path
     d="M 16,16 V 2 H 6 v 14 z"
     style="fill:#ffffff;stroke-linecap:round;stroke-linejoin:round;paint-order:markers stroke fill;fill-opacity:0.25"
     id="path6" />
</svg>
