<?xml version="1.0" encoding="UTF-8" standalone="no"?>
<!-- Created with Inkscape (http://www.inkscape.org/) -->

<svg
   width="24"
   height="18"
   viewBox="0 0 24 18"
   version="1.1"
   id="svg1"
   xmlns="http://www.w3.org/2000/svg"
   xmlns:svg="http://www.w3.org/2000/svg">
  <defs
     id="defs1" />
  <path
     d="M 3,1 C 1.892,1 1,1.892 1,3 v 12 c 0,1.108 0.892,2 2,2 h 18 c 1.108,0 2,-0.892 2,-2 V 3 C 23,1.892 22.108,1 21,1 Z m 0.5,1 h 17 C 21.331,2 22,2.669 22,3.5 v 11 C 22,15.331 21.331,16 20.5,16 H 3.5 C 2.669,16 2,15.331 2,14.5 V 3.5 C 2,2.669 2.669,2 3.5,2 Z"
     style="fill:{Light};stroke-opacity:0.795367;paint-order:markers fill stroke"
     id="path5" />
  <path
     d="m 20,13 v 1 h 1 v -1 z"
     style="fill:{Light};paint-order:markers fill stroke"
     id="path16" />
  <path
     d="m 20,13 h 1 v 1 h -1 z"
     style="fill:{Light};paint-order:markers fill stroke"
     id="path15" />
  <path
     d="m 3,13 v 1 h 1 v -1 z"
     style="fill:{Light};paint-order:markers fill stroke"
     id="path14" />
  <path
     d="m 20,10 v 1 h 1 v -1 z"
     style="fill:{Light};paint-order:markers fill stroke"
     id="path13" />
  <path
     d="m 3,10 v 1 h 1 v -1 z"
     style="fill:{Light};paint-order:markers fill stroke"
     id="path12" />
  <path
     d="m 20,7 v 1 h 1 V 7 Z"
     style="fill:{Light};paint-order:markers fill stroke"
     id="path11" />
  <path
     d="M 3,7 V 8 H 4 V 7 Z"
     style="fill:{Light};paint-order:markers fill stroke"
     id="path10" />
  <path
     d="m 20,4 v 1 h 1 V 4 Z"
     style="fill:{Light};paint-order:markers fill stroke"
     id="path9" />
  <path
     d="M 3,4 V 5 H 4 V 4 Z"
     style="fill:{Light};paint-order:markers fill stroke"
     id="path7" />
  <path
     d="M 3.5,2 C 2.669,2 2,2.669 2,3.5 v 11 C 2,15.331 2.669,16 3.5,16 h 17 C 21.331,16 22,15.331 22,14.5 V 3.5 C 22,2.669 21.331,2 20.5,2 Z M 3,4 H 4 V 5 H 3 Z m 4,0 h 10 c 0.554,0 1,0.446 1,1 v 8 c 0,0.554 -0.446,1 -1,1 H 7 C 6.446,14 6,13.554 6,13 V 5 C 6,4.446 6.446,4 7,4 Z m 13,0 h 1 V 5 H 20 Z M 3,7 H 4 V 8 H 3 Z m 17,0 h 1 V 8 H 20 Z M 3,10 h 1 v 1 H 3 Z m 17,0 h 1 v 1 H 20 Z M 3,13 h 1 v 1 H 3 Z"
     style="paint-order:markers fill stroke;fill:#000000;fill-opacity:1"
     id="path6" />
  <path
     d="M 7,4 C 6.446,4 6,4.446 6,5 v 8 c 0,0.554 0.446,1 1,1 h 10 c 0.554,0 1,-0.446 1,-1 V 5 C 18,4.446 17.554,4 17,4 Z"
     style="fill:{Light};opacity:0.5;stroke-width:0.999997;stroke-linecap:round;stroke-linejoin:round;paint-order:markers stroke fill"
     id="path8" />
</svg>
