<?xml version="1.0" encoding="UTF-8" standalone="no"?>
<!-- Created with Inkscape (http://www.inkscape.org/) -->

<svg
   width="16"
   height="12"
   viewBox="0 0 16 12"
   version="1.1"
   id="svg1"
   xmlns:xlink="http://www.w3.org/1999/xlink"
   xmlns="http://www.w3.org/2000/svg"
   xmlns:svg="http://www.w3.org/2000/svg">
  <defs
     id="defs1">
    <linearGradient
       id="linearGradient7">
      <stop
         style="stop-color:#000000;stop-opacity:1;"
         offset="0.26666668"
         id="stop7" />
      <stop
         style="stop-color:#ffffff;stop-opacity:1;"
         offset="0.78562093"
         id="stop8" />
    </linearGradient>
    <linearGradient
       xlink:href="#linearGradient7"
       id="linearGradient8"
       x1="7.5"
       y1="10"
       x2="7.5"
       y2="1"
       gradientUnits="userSpaceOnUse" />
  </defs>
  <rect
     style="paint-order:markers fill stroke;stroke-opacity:0.795367;fill:{Shadow};opacity:0.125;"
     id="rect3"
     width="9"
     height="1"
     x="4"
     y="11" />
  <path
     id="rect1"
     style="paint-order:markers fill stroke;stroke-opacity:0.795367;fill-opacity:1;fill:{Shadow};opacity:0.25;display:inline;"
     d="M 3 0 L 3 1 L 4 1 L 4 0 L 3 0 z M 1 1 L 1 12 L 2 12 L 2 1 L 1 1 z M 13 1 L 13 11 L 13 12 L 14 12 L 14 1 L 13 1 z M 15 1 L 15 12 L 16 12 L 16 1 L 15 1 z M 3 2 L 3 3 L 3 9 L 4 9 L 4 3 L 12 3 L 12 2 L 4 2 L 3 2 z M 3 10 L 3 11 L 3 12 L 4 12 L 4 11 L 12 11 L 12 10 L 3 10 z " />
  <rect
     style="paint-order:markers fill stroke;stroke-opacity:0.795367;fill-opacity:1;fill:{Mid};opacity:0.75;display:inline;"
     id="rect2"
     width="9"
     height="11"
     x="3"
     y="0" />
  <path
     d="M 0,0 V 11 H 1 V 10 H 2 V 11 H 3 V 10.5 C 3,10.223 3.223,10 3.5,10 H 11.5 C 11.777,10 12,10.223 12,10.5 V 11 H 13 V 10 H 14 V 11 H 15 V 0 H 14 V 1 H 13 V 0 H 12 V 0.5 C 12,0.777 11.777,1 11.5,1 H 3.5 C 3.223,1 3,0.777 3,0.5 V 0 H 2 V 1 H 1 V 0 Z M 1,2 H 2 V 3 H 1 Z M 3.5,2 H 11.5 C 11.777,2 12,2.223 12,2.5 V 8.5 C 12,8.777 11.777,9 11.5,9 H 3.5 C 3.223,9 3,8.777 3,8.5 V 2.5 C 3,2.223 3.223,2 3.5,2 Z M 13,2 H 14 V 3 H 13 Z M 1,4 H 2 V 5 H 1 Z M 13,4 H 14 V 5 H 13 Z M 1,6 H 2 V 7 H 1 Z M 13,6 H 14 V 7 H 13 Z M 1,8 H 2 V 9 H 1 Z M 13,8 H 14 V 9 H 13 Z"
     style="paint-order:markers fill stroke;stroke-opacity:0.795367;fill-opacity:1;fill:{ButtonText};"
     id="path69" />
  <path
     style="opacity:0.5;fill:#ff0000;stroke-opacity:0.795367;paint-order:markers fill stroke;fill-opacity:1"
     id="rect4"
     width="4.5"
     height="7"
     x="3"
     y="2"
     d="M 3.5,2 H 7.5 V 9 H 3.5 A 0.5,0.5 45 0 1 3,8.5 V 2.5 A 0.5,0.5 135 0 1 3.5,2 Z" />
  <path
     style="opacity:0.5;fill:#0000ff;stroke-opacity:0.795367;paint-order:markers fill stroke;fill-opacity:1"
     id="rect4-3"
     width="4.5"
     height="7"
     x="7.5"
     y="2"
     d="M 7.5,2 H 11.5 A 0.5,0.5 45 0 1 12,2.5 V 8.5 A 0.5,0.5 135 0 1 11.5,9 H 7.5 Z" />
  <rect
     style="opacity:0.25;fill:url(#linearGradient8);fill-opacity:1;stroke-opacity:0.795367;paint-order:markers fill stroke"
     id="rect7"
     width="9"
     height="7"
     x="3"
     y="2"
     rx="0.5"
     ry="0.5" />
</svg>
