<?xml version="1.0" encoding="UTF-8" standalone="no"?>
<!-- Created with Inkscape (http://www.inkscape.org/) -->

<svg
   width="24"
   height="18"
   viewBox="0 0 24 18"
   version="1.1"
   id="svg1"
   xmlns="http://www.w3.org/2000/svg"
   xmlns:svg="http://www.w3.org/2000/svg">
  <defs
     id="defs1" />
  <rect
     style="fill:#000000;fill-opacity:0.5;stroke-width:1;stroke-linecap:round;stroke-linejoin:round;paint-order:markers stroke fill"
     id="rect15-2-6"
     width="23"
     height="17"
     x="1"
     y="1"
     ry="2"
     rx="2" />
  <rect
     style="fill:#ffffff;fill-opacity:1;stroke-width:1;stroke-linecap:round;stroke-linejoin:round;paint-order:markers stroke fill"
     id="rect15-2"
     width="23"
     height="17"
     x="0"
     y="0"
     ry="2"
     rx="2" />
  <rect
     style="fill:#000000;fill-opacity:1;stroke-width:0.999997;stroke-linecap:round;stroke-linejoin:round;paint-order:markers stroke fill"
     id="rect15"
     width="21"
     height="15"
     x="1"
     y="1"
     ry="1"
     rx="1" />
  <rect
     style="fill:#ffffff;fill-opacity:1;stroke-linecap:round;stroke-linejoin:round;paint-order:markers stroke fill"
     id="rect16"
     width="1"
     height="1"
     x="2"
     y="2"
     rx="1.8"
     ry="1.3877788e-16" />
  <rect
     style="fill:#ffffff;fill-opacity:1;stroke-linecap:round;stroke-linejoin:round;paint-order:markers stroke fill"
     id="rect16-2"
     width="1"
     height="1"
     x="2"
     y="6"
     rx="1.8"
     ry="1.3877788e-16" />
  <rect
     style="fill:#ffffff;fill-opacity:1;stroke-linecap:round;stroke-linejoin:round;paint-order:markers stroke fill"
     id="rect16-1"
     width="1"
     height="1"
     x="2"
     y="14"
     rx="1.8"
     ry="1.3877788e-16" />
  <rect
     style="fill:#ffffff;fill-opacity:1;stroke-linecap:round;stroke-linejoin:round;paint-order:markers stroke fill"
     id="rect16-1-0"
     width="1"
     height="1"
     x="2"
     y="10"
     rx="1.8"
     ry="1.3877788e-16" />
  <rect
     style="fill:#ffffff;fill-opacity:1;stroke-linecap:round;stroke-linejoin:round;paint-order:markers stroke fill"
     id="rect16-9"
     width="1"
     height="1"
     x="20"
     y="2"
     rx="1.8"
     ry="1.3877788e-16" />
  <rect
     style="fill:#ffffff;fill-opacity:1;stroke-linecap:round;stroke-linejoin:round;paint-order:markers stroke fill"
     id="rect16-2-5"
     width="1"
     height="1"
     x="20"
     y="6"
     rx="1.8"
     ry="1.3877788e-16" />
  <rect
     style="fill:#ffffff;fill-opacity:1;stroke-linecap:round;stroke-linejoin:round;paint-order:markers stroke fill"
     id="rect16-1-04"
     width="1"
     height="1"
     x="20"
     y="14"
     rx="1.8"
     ry="1.3877788e-16" />
  <rect
     style="fill:#ffffff;fill-opacity:1;stroke-linecap:round;stroke-linejoin:round;paint-order:markers stroke fill"
     id="rect16-1-0-8"
     width="1"
     height="1"
     x="20"
     y="10"
     rx="1.8"
     ry="1.3877788e-16" />
  <rect
     style="fill:#ffffff;fill-opacity:1;stroke-width:1;stroke-linecap:round;stroke-linejoin:round;paint-order:markers stroke fill"
     id="rect17"
     width="15"
     height="13"
     x="4"
     y="2"
     rx="1.6"
     ry="1.3877788e-16" />
</svg>
