<?xml version="1.0" encoding="UTF-8" standalone="no"?>
<!-- Created with Inkscape (http://www.inkscape.org/) -->

<svg
   width="16"
   height="12"
   viewBox="0 0 16 12"
   version="1.1"
   id="svg1"
   xmlns="http://www.w3.org/2000/svg"
   xmlns:svg="http://www.w3.org/2000/svg">
  <defs
     id="defs1" />
  <g
     id="layer1">
    <path
       id="rect1-0-0-2-3"
       style="paint-order:markers fill stroke;stroke-opacity:0.795367;stroke-width:0.999999;fill:{Shadow};opacity:0.25;"
       d="M 14,10 H 15 V 10.5 H 14 Z M 1,2.5 H 2 V 3 H 1 Z M 2,10 H 3 V 10.5 H 2 Z M 1,3 H 2 V 10.5 A 1,1 45 0 1 1,9.5 Z M 15,2.5 H 15.5 A 0.5,0.5 45 0 1 16,3 V 9.5 A 1,1 135 0 1 15,10.5 Z M 3,2 H 12 V 10.5 H 3 Z M 12,2.5 H 14 V 10.5 H 12 Z" />
    <rect
       style="opacity:0.8;fill:#635549;fill-opacity:1;stroke-width:1;stroke-opacity:0.795367;paint-order:markers fill stroke"
       id="rect2"
       width="9"
       height="8"
       x="3"
       y="1.5" />
    <path
       d="M 0,2.5 V 8.5 A 1,1 45 0 0 1,9.5 H 14 A 1,1 135 0 0 15,8.5 V 2.5 A 1,1 45 0 0 14,1.5 H 1 A 1,1 135 0 0 0,2.5 Z M 1,2 H 2 V 3 H 1 Z M 3.5,2 H 11.5 C 11.777,2 12,2.223 12,2.5 V 8.5 C 12,8.777 11.777,9 11.5,9 H 3.5 C 3.223,9 3,8.777 3,8.5 V 2.5 C 3,2.223 3.223,2 3.5,2 Z M 13,2 H 14 V 3 H 13 Z M 1,4 H 2 V 5 H 1 Z M 13,4 H 14 V 5 H 13 Z M 1,6 H 2 V 7 H 1 Z M 13,6 H 14 V 7 H 13 Z M 1,8 H 2 V 9 H 1 Z M 13,8 H 14 V 9 H 13 Z"
       style="paint-order:markers fill stroke;stroke-opacity:0.795367;fill-opacity:1;fill:{ButtonText};"
       id="path69" />
  </g>
</svg>
