<?xml version="1.0" encoding="UTF-8" standalone="no"?>
<!-- Created with Inkscape (http://www.inkscape.org/) -->

<svg
   width="16"
   height="12"
   viewBox="0 0 16 12"
   version="1.1"
   id="svg1"
   xmlns="http://www.w3.org/2000/svg"
   xmlns:svg="http://www.w3.org/2000/svg">
  <defs
     id="defs1" />
  <g
     id="layer1">
    <path
       id="rect1"
       style="paint-order:markers fill stroke;stroke-opacity:0.795367;fill-opacity:1;fill:{Shadow};opacity:0.25;"
       d="M 3,11 H 13 V 12 H 3 Z M 1,1 H 2 V 12 H 1 Z M 13,1 H 14 V 12 H 13 Z M 15,1 H 16 V 12 H 15 Z" />
    <rect
       style="opacity:0.8;fill:#635549;stroke-opacity:0.795367;paint-order:markers fill stroke;fill-opacity:1"
       id="rect2"
       width="9"
       height="11"
       x="3"
       y="0" />
    <path
       d="M 0,0 V 11 H 1 V 10 H 2 V 11 H 3 V 10.5 C 3,10.223 3.223,10 3.5,10 H 11.5 C 11.777,10 12,10.223 12,10.5 V 11 H 13 V 10 H 14 V 11 H 15 V 0 H 14 V 1 H 13 V 0 H 12 V 0.5 C 12,0.777 11.777,1 11.5,1 H 3.5 C 3.223,1 3,0.777 3,0.5 V 0 H 2 V 1 H 1 V 0 Z M 1,2 H 2 V 3 H 1 Z M 3.5,2 H 11.5 C 11.777,2 12,2.223 12,2.5 V 8.5 C 12,8.777 11.777,9 11.5,9 H 3.5 C 3.223,9 3,8.777 3,8.5 V 2.5 C 3,2.223 3.223,2 3.5,2 Z M 13,2 H 14 V 3 H 13 Z M 1,4 H 2 V 5 H 1 Z M 13,4 H 14 V 5 H 13 Z M 1,6 H 2 V 7 H 1 Z M 13,6 H 14 V 7 H 13 Z M 1,8 H 2 V 9 H 1 Z M 13,8 H 14 V 9 H 13 Z"
       style="paint-order:markers fill stroke;stroke-opacity:0.795367;fill-opacity:1;fill:{ButtonText};"
       id="path69" />
  </g>
</svg>
