<?xml version="1.0" encoding="UTF-8" standalone="no"?>
<!-- Created with Inkscape (http://www.inkscape.org/) -->

<svg
   width="24"
   height="18"
   viewBox="0 0 24 18"
   version="1.1"
   id="svg1"
   xmlns="http://www.w3.org/2000/svg"
   xmlns:svg="http://www.w3.org/2000/svg">
  <defs
     id="defs1" />
  <path
     d="M 23,2.265625 V 15 c 0,1.108 -0.892,2 -2,2 H 2.265625 C 2.61045,17.598661 3.2567875,18 4,18 h 18 c 1.108,0 2,-0.892 2,-2 V 4 C 24,3.2567867 23.598662,2.6104497 23,2.265625 Z"
     style="fill-opacity:0.320463;stroke-opacity:0.795367;paint-order:markers fill stroke"
     id="Shadow" />
  <path
     id="Outline"
     style="fill:#ffffff;stroke-width:0.999999;stroke-opacity:0.795367;paint-order:markers fill stroke;fill-opacity:0.5"
     d="M 2 0 C 0.89200007 0 0 0.892 0 2 L 0 15 C 0 16.108 0.89200007 17 2 17 L 2.265625 17 L 21 17 C 22.108 17 23 16.108 23 15 L 23 2.265625 L 23 2 C 23 0.892 22.108 0 21 0 L 2 0 z M 2 1 L 21 1 C 21.554 1 22 1.4460001 22 2 L 22 15 C 22 15.554 21.554 16 21 16 L 2 16 C 1.446 16 1 15.554 1 15 L 1 2 C 1 1.4460001 1.446 1 2 1 z " />
  <path
     d="m 2,16 h 19 c 0.554,0 1,-0.446 1,-1 V 2 H 21 V 3 H 20 V 2 h -2 c 0.554,0 1,0.446 1,1 v 11 c 0,0.554 -0.446,1 -1,1 H 5 C 4.446,15 4,14.554 4,14 V 3 C 4,2.446 4.446,2 5,2 H 4 C 3.6352125,2 3.2938379,2.0963762 3,2.265625 V 3 H 2.265625 C 2.0963762,3.2938379 2,3.6352125 2,4 V 6 H 3 V 7 H 2 v 3 h 1 v 1 H 2 v 3 h 1 v 1 H 2 Z m 18,-2 h 1 v 1 h -1 z"
     style="stroke-width:0.942809;paint-order:markers fill stroke"
     id="path23" />
  <path
     d="M 2,16 V 15 14 11 10 7 6 4 C 2,3.6352125 2.0963762,3.2938379 2.265625,3 H 2 V 2 H 3 V 2.265625 C 3.2938379,2.0963762 3.6352125,2 4,2 h 1 13 2 1 1 C 22,1.4460001 21.554,1 21,1 H 2 C 1.446,1 1,1.4460001 1,2 v 13 c 0,0.554 0.446,1 1,1 z"
     style="stroke-width:0.942809;paint-order:markers fill stroke"
     id="path22" />
  <path
     d="M 2,15 H 3 V 14 H 2 Z"
     style="fill:#ffffff;stroke-linecap:round;stroke-linejoin:round;paint-order:markers stroke fill;fill-opacity:0.5"
     id="path24" />
  <path
     d="M 2,11 H 3 V 10 H 2 Z"
     style="fill:#ffffff;stroke-linecap:round;stroke-linejoin:round;paint-order:markers stroke fill;fill-opacity:0.5"
     id="path25" />
  <path
     d="M 2,7 H 3 V 6 H 2 Z"
     style="fill:#ffffff;stroke-linecap:round;stroke-linejoin:round;paint-order:markers stroke fill;fill-opacity:0.5"
     id="path26" />
  <path
     d="M 2,3 H 3 V 2 H 2 Z"
     style="fill:#ffffff;stroke-linecap:round;stroke-linejoin:round;paint-order:markers stroke fill;fill-opacity:0.5"
     id="path26-1" />
  <path
     d="m 20,2 v 1 h 1 V 2 Z"
     style="fill:#ffffff;stroke-linecap:round;stroke-linejoin:round;paint-order:markers stroke fill;fill-opacity:0.5"
     id="path30" />
  <path
     d="m 20,14 v 1 h 1 v -1 z"
     style="fill:#ffffff;stroke-linecap:round;stroke-linejoin:round;paint-order:markers stroke fill;fill-opacity:0.5"
     id="path33" />
  <path
     d="m 20,10 v 1 h 1 v -1 z"
     style="fill:#ffffff;stroke-linecap:round;stroke-linejoin:round;paint-order:markers stroke fill;fill-opacity:0.5"
     id="path32" />
  <path
     d="m 20,6 v 1 h 1 V 6 Z"
     style="fill:#ffffff;stroke-linecap:round;stroke-linejoin:round;paint-order:markers stroke fill;fill-opacity:0.5"
     id="path31" />
  <path
     d="M 5,2 C 4.446,2 4,2.446 4,3 v 11 c 0,0.554 0.446,1 1,1 h 13 c 0.554,0 1,-0.446 1,-1 V 3 C 19,2.446 18.554,2 18,2 Z"
     style="fill:#ffffff;stroke-linecap:round;stroke-linejoin:round;paint-order:markers stroke fill;fill-opacity:0.5"
     id="Frame" />
</svg>
