<?xml version="1.0" encoding="UTF-8" standalone="no"?>
<!-- Created with Inkscape (http://www.inkscape.org/) -->

<svg
   width="16"
   height="12"
   viewBox="0 0 16 12"
   version="1.1"
   id="svg1"
   sodipodi:docname="item_masterclip_v12_themed.svg"
   inkscape:version="1.4.2 (ebf0e940d0, 2025-05-08)"
   xmlns:inkscape="http://www.inkscape.org/namespaces/inkscape"
   xmlns:sodipodi="http://sodipodi.sourceforge.net/DTD/sodipodi-0.dtd"
   xmlns="http://www.w3.org/2000/svg"
   xmlns:svg="http://www.w3.org/2000/svg">
  <sodipodi:namedview
     id="namedview1"
     pagecolor="#505050"
     bordercolor="#eeeeee"
     borderopacity="1"
     inkscape:showpageshadow="0"
     inkscape:pageopacity="0"
     inkscape:pagecheckerboard="true"
     inkscape:deskcolor="#505050"
     inkscape:document-units="px"
     showgrid="true"
     inkscape:zoom="39.005153"
     inkscape:cx="9.8320343"
     inkscape:cy="10.85754"
     inkscape:window-width="3840"
     inkscape:window-height="2136"
     inkscape:window-x="0"
     inkscape:window-y="0"
     inkscape:window-maximized="1"
     inkscape:current-layer="layer1">
    <inkscape:grid
       id="grid1"
       units="px"
       originx="0"
       originy="0"
       spacingx="1"
       spacingy="1"
       empcolor="#0099e5"
       empopacity="0.30196078"
       color="#0099e5"
       opacity="0.14901961"
       empspacing="2"
       enabled="true"
       visible="true" />
  </sodipodi:namedview>
  <defs
     id="defs1" />
  <g
     inkscape:groupmode="layer"
     id="layer3"
     inkscape:label="Decorations">
    <path
       d="M 0,0 V 11 H 15 V 0 Z m 1,1 h 13 v 9 H 1 Z"
       style="fill:#ffffff;stroke-linecap:round;stroke-linejoin:round;paint-order:markers stroke fill;fill-opacity:0.2"
       id="path6" />
    <path
       id="rect4-8-3"
       style="fill:#000000;fill-opacity:0.5;stroke-linecap:round;stroke-linejoin:round;paint-order:markers stroke fill"
       inkscape:label="Shadow"
       d="M 15,1 V 11 H 1 v 1 H 16 V 1 Z" />
  </g>
  <g
     inkscape:groupmode="layer"
     id="layer2"
     inkscape:label="Film">
    <path
       d="m 1,1 v 9 H 14 V 1 Z M 2,2 H 3 V 3 H 2 Z m 2,0 h 7 V 9 H 4 Z m 8,0 h 1 V 3 H 12 Z M 2,4 H 3 V 5 H 2 Z m 10,0 h 1 V 5 H 12 Z M 2,6 H 3 V 7 H 2 Z m 10,0 h 1 V 7 H 12 Z M 2,8 H 3 V 9 H 2 Z m 10,0 h 1 v 1 h -1 z"
       style="stroke-width:0.999991;stroke-linecap:round;stroke-linejoin:round;paint-order:markers stroke fill"
       id="path7" />
    <path
       d="m 4,2 v 7 h 7 V 2 Z"
       style="fill:#ffffff;stroke-width:0.999995;stroke-linecap:round;stroke-linejoin:round;paint-order:markers stroke fill;fill-opacity:0.2"
       id="path9" />
  </g>
  <g
     inkscape:label="Perfs"
     inkscape:groupmode="layer"
     id="layer1">
    <path
       d="M 2,2 V 3 H 3 V 2 Z"
       style="fill:#ffffff;stroke-linecap:round;stroke-linejoin:round;paint-order:markers stroke fill;fill-opacity:0.2"
       id="path8" />
    <path
       d="M 2,4 V 5 H 3 V 4 Z"
       style="fill:#ffffff;stroke-linecap:round;stroke-linejoin:round;paint-order:markers stroke fill;fill-opacity:0.2"
       id="path11" />
    <path
       d="M 2,6 V 7 H 3 V 6 Z"
       style="fill:#ffffff;stroke-linecap:round;stroke-linejoin:round;paint-order:markers stroke fill;fill-opacity:0.2"
       id="path13" />
    <path
       d="M 2,8 V 9 H 3 V 8 Z"
       style="fill:#ffffff;stroke-linecap:round;stroke-linejoin:round;paint-order:markers stroke fill;fill-opacity:0.2"
       id="path15" />
    <path
       d="m 12,2 v 1 h 1 V 2 Z"
       style="fill:#ffffff;stroke-linecap:round;stroke-linejoin:round;paint-order:markers stroke fill;fill-opacity:0.2"
       id="path10" />
    <path
       d="m 12,4 v 1 h 1 V 4 Z"
       style="fill:#ffffff;stroke-linecap:round;stroke-linejoin:round;paint-order:markers stroke fill;fill-opacity:0.2"
       id="path12" />
    <path
       d="m 12,6 v 1 h 1 V 6 Z"
       style="fill:#ffffff;stroke-linecap:round;stroke-linejoin:round;paint-order:markers stroke fill;fill-opacity:0.2"
       id="path14" />
    <path
       d="m 12,8 v 1 h 1 V 8 Z"
       style="fill:#ffffff;stroke-linecap:round;stroke-linejoin:round;paint-order:markers stroke fill;fill-opacity:0.2"
       id="path16" />
  </g>
</svg>
