<?xml version="1.0" encoding="UTF-8" standalone="no"?>
<!-- Created with Inkscape (http://www.inkscape.org/) -->

<svg
   width="16"
   height="12"
   viewBox="0 0 16 12"
   version="1.1"
   id="svg1"
   inkscape:version="1.4.2 (ebf0e940, 2025-05-08)"
   sodipodi:docname="item_effect_v02.svg"
   xmlns:inkscape="http://www.inkscape.org/namespaces/inkscape"
   xmlns:sodipodi="http://sodipodi.sourceforge.net/DTD/sodipodi-0.dtd"
   xmlns="http://www.w3.org/2000/svg"
   xmlns:svg="http://www.w3.org/2000/svg">
  <sodipodi:namedview
     id="namedview1"
     pagecolor="#ffffff"
     bordercolor="#000000"
     borderopacity="0.25"
     inkscape:showpageshadow="2"
     inkscape:pageopacity="0.0"
     inkscape:pagecheckerboard="true"
     inkscape:deskcolor="#d1d1d1"
     inkscape:document-units="px"
     inkscape:clip-to-page="false"
     showgrid="true"
     inkscape:zoom="30.75"
     inkscape:cx="8.4878049"
     inkscape:cy="5.5121951"
     inkscape:current-layer="layer1">
    <inkscape:grid
       id="grid1"
       units="px"
       originx="0"
       originy="0"
       spacingx="1"
       spacingy="0.5"
       empcolor="#0099e5"
       empopacity="0.30196078"
       color="#0099e5"
       opacity="0.14901961"
       empspacing="2"
       enabled="true"
       visible="true" />
  </sodipodi:namedview>
  <defs
     id="defs1" />
  <g
     inkscape:label="Layer 1"
     inkscape:groupmode="layer"
     id="layer1">
    <path
       d="M 13,1.5 V 10 H 2.5 V 10.5 H 13.5 V 1.5 Z"
       style="opacity:0.25;stroke-opacity:0.795367;paint-order:markers fill stroke"
       id="path11" />
    <path
       d="M 2,1 V 10 H 13 V 1 Z M 3.5,2 H 11.5 C 11.777,2 12,2.223 12,2.5 V 8.5 C 12,8.777 11.777,9 11.5,9 H 3.5 C 3.223,9 3,8.777 3,8.5 V 2.5 C 3,2.223 3.223,2 3.5,2 Z"
       style="stroke-opacity:0.795367;paint-order:markers fill stroke"
       id="path13" />
    <path
       d="M 3.5,2 C 3.223,2 3,2.223 3,2.5 V 8.5 C 3,8.777 3.223,9 3.5,9 H 11.5 C 11.777,9 12,8.777 12,8.5 V 2.5 C 12,2.223 11.777,2 11.5,2 Z"
       style="opacity:0.5;stroke-opacity:0.795367;paint-order:markers fill stroke;fill:#800080"
       id="path12" />
    <path
       style="opacity:1;fill:#ffffff;fill-opacity:1;stroke:none;stroke-width:0.2;stroke-opacity:0.795367;paint-order:markers fill stroke"
       d="M 7.5,2.5 7.5,5 H 10 L 7.5,8.5 7.4999999,6 H 5 Z"
       id="path6"
       sodipodi:nodetypes="ccccccc" />
  </g>
</svg>
