<?xml version="1.0" encoding="UTF-8" standalone="no"?>
<!-- Created with Inkscape (http://www.inkscape.org/) -->

<svg
   width="16"
   height="12"
   viewBox="0 0 16 12"
   version="1.1"
   id="svg1"
   xmlns="http://www.w3.org/2000/svg"
   xmlns:svg="http://www.w3.org/2000/svg">
  <defs
     id="defs1" />
  <g
     id="layer1">
    <path
       id="rect1-0-0-2-3"
       style="paint-order:markers fill stroke;stroke-opacity:0.795367;stroke-width:0.999999;fill-opacity:1;fill:{Shadow};opacity:0.25;"
       d="M 3 2 L 3 3 L 3 10 L 3 10.5 L 12 10.5 L 14 10.5 L 14 10 L 14 2.5 L 12 2.5 L 12 2 L 4 2 L 3 2 z M 1 2.5 L 1 3 L 1 10.5 L 2 10.5 L 2 10 L 2 3 L 2 2.5 L 1 2.5 z M 15 2.5 L 15 10 L 15 10.5 L 16 10.5 L 16 2.5 L 15.5 2.5 L 15 2.5 z M 4 3 L 12 3 L 12 9 L 4 9 L 4 3 z " />
    <rect
       style="paint-order:markers fill stroke;stroke-opacity:0.795367;stroke-width:1;fill-opacity:1;fill:{Mid};opacity:0.75;"
       id="rect2"
       width="9"
       height="8"
       x="3"
       y="1.5" />
    <path
       id="path69"
       style="paint-order:markers fill stroke;stroke-opacity:0.795367;fill-opacity:1;fill:{ButtonText};"
       d="M 1,1.5 H 0 V 9.5 H 1 V 9 8 H 2 V 9 9.5 H 13 V 9 8 H 14 V 9 9.5 H 15 L 15,1.5 H 14 V 2 3 H 13 V 2 1.5 H 2 V 2 3 H 1 V 2 Z M 3.5,2 H 11.5 C 11.777,2 12,2.223 12,2.5 V 8.5 C 12,8.777 11.777,9 11.5,9 H 3.5 C 3.223,9 3,8.777 3,8.5 V 2.5 C 3,2.223 3.223,2 3.5,2 Z M 1,4 H 2 V 5 H 1 Z M 13,4 H 14 V 5 H 13 Z M 1,6 H 2 V 7 H 1 Z M 13,6 H 14 V 7 H 13 Z" />
  </g>
</svg>
