<?xml version="1.0" encoding="UTF-8" standalone="no"?>
<!-- Created with Inkscape (http://www.inkscape.org/) -->

<svg
   width="16"
   height="12"
   viewBox="0 0 16 12"
   version="1.1"
   id="svg1"
   xmlns="http://www.w3.org/2000/svg"
   xmlns:svg="http://www.w3.org/2000/svg">
  <defs
     id="defs1" />
  <g
     id="layer1">
    <path
       id="path1-0"
       style="fill:{Shadow};stroke-opacity:0.795367;paint-order:markers fill stroke;opacity:0.25"
       d="M 8.5,1 A 5.5,5.5 0 0 0 3,6.5 5.5,5.5 0 0 0 8.5,12 5.5,5.5 0 0 0 14,6.5 5.5,5.5 0 0 0 8.5,1 Z M 8.5,2.3320312 A 1,1 0 0 1 9.5,3.3320312 1,1 0 0 1 8.5,4.3320312 1,1 0 0 1 7.5,3.3320312 1,1 0 0 1 8.5,2.3320312 Z M 5.3339844,5.5 A 1,1 0 0 1 6.3339844,6.5 1,1 0 0 1 5.3339844,7.5 1,1 0 0 1 4.3339844,6.5 1,1 0 0 1 5.3339844,5.5 Z M 8.5,5.5 A 1,1 0 0 1 9.5,6.5 1,1 0 0 1 8.5,7.5 1,1 0 0 1 7.5,6.5 1,1 0 0 1 8.5,5.5 Z M 11.666016,5.5 A 1,1 0 0 1 12.666016,6.5 1,1 0 0 1 11.666016,7.5 1,1 0 0 1 10.666016,6.5 1,1 0 0 1 11.666016,5.5 Z M 8.5,8.6660156 A 1,1 0 0 1 9.5,9.6660156 1,1 0 0 1 8.5,10.666016 1,1 0 0 1 7.5,9.6660156 1,1 0 0 1 8.5,8.6660156 Z" />
    <path
       id="path1"
       style="fill:{ButtonText};stroke-opacity:0.795367;paint-order:markers fill stroke"
       d="M 7.5 0 A 5.5 5.5 0 0 0 2 5.5 A 5.5 5.5 0 0 0 7.5 11 A 5.5 5.5 0 0 0 13 5.5 A 5.5 5.5 0 0 0 7.5 0 z M 7.5 1.3320312 A 1 1 0 0 1 8.5 2.3320312 A 1 1 0 0 1 7.5 3.3320312 A 1 1 0 0 1 6.5 2.3320312 A 1 1 0 0 1 7.5 1.3320312 z M 4.3339844 4.5 A 1 1 0 0 1 5.3339844 5.5 A 1 1 0 0 1 4.3339844 6.5 A 1 1 0 0 1 3.3339844 5.5 A 1 1 0 0 1 4.3339844 4.5 z M 7.5 4.5 A 1 1 0 0 1 8.5 5.5 A 1 1 0 0 1 7.5 6.5 A 1 1 0 0 1 6.5 5.5 A 1 1 0 0 1 7.5 4.5 z M 10.666016 4.5 A 1 1 0 0 1 11.666016 5.5 A 1 1 0 0 1 10.666016 6.5 A 1 1 0 0 1 9.6660156 5.5 A 1 1 0 0 1 10.666016 4.5 z M 7.5 7.6660156 A 1 1 0 0 1 8.5 8.6660156 A 1 1 0 0 1 7.5 9.6660156 A 1 1 0 0 1 6.5 8.6660156 A 1 1 0 0 1 7.5 7.6660156 z " />
  </g>
</svg>
