<?xml version="1.0" encoding="UTF-8" standalone="no"?>
<!-- Created with Inkscape (http://www.inkscape.org/) -->

<svg
   width="16"
   height="16"
   viewBox="0 0 16 16"
   version="1.1"
   id="svg1"
   sodipodi:docname="test_script.svg"
   inkscape:version="1.4.2 (ebf0e940d0, 2025-05-08)"
   xmlns:inkscape="http://www.inkscape.org/namespaces/inkscape"
   xmlns:sodipodi="http://sodipodi.sourceforge.net/DTD/sodipodi-0.dtd"
   xmlns="http://www.w3.org/2000/svg"
   xmlns:svg="http://www.w3.org/2000/svg">
  <defs
     id="defs1" />
  <sodipodi:namedview
     id="namedview1"
     pagecolor="#ffffff"
     bordercolor="#000000"
     borderopacity="0.25"
     inkscape:showpageshadow="2"
     inkscape:pageopacity="0.0"
     inkscape:pagecheckerboard="0"
     inkscape:deskcolor="#d1d1d1"
     showgrid="true"
     inkscape:zoom="64"
     inkscape:cx="8.7578125"
     inkscape:cy="5.7265625"
     inkscape:window-width="3840"
     inkscape:window-height="2136"
     inkscape:window-x="0"
     inkscape:window-y="0"
     inkscape:window-maximized="1"
     inkscape:current-layer="g16">
    <inkscape:grid
       id="grid1"
       units="px"
       originx="0"
       originy="0"
       spacingx="1"
       spacingy="1"
       empcolor="#0099e5"
       empopacity="0.30196078"
       color="#0099e5"
       opacity="0.14901961"
       empspacing="5"
       enabled="true"
       visible="true" />
  </sodipodi:namedview>
  <g
     id="g16"
     style="display:inline">
    <path
       d="M 1,0 C 0.446,0 0,0.446 0,1 v 2 1 2.5 3 3 2.5 c 0,0.554 0.446,1 1,1 h 2 1 11 c 0.554,0 1,-0.446 1,-1 V 12.5 9.5 6.5 4 3 1 C 16,0.446 15.554,0 15,0 H 4 3 Z M 1,4 H 5 V 7 H 1 Z m 5,0 h 9 V 5 H 6 Z m 0,2 h 9 V 7 H 6 Z M 1,8 h 4 v 3 H 1 Z m 5,0 h 9 V 9 H 6 Z m 0,2 h 9 v 1 H 6 Z m -5,2 h 4 v 3 H 1 Z m 5,0 h 9 v 1 H 6 Z m 0,2 h 9 v 1 H 6 Z"
       style="display:inline;stroke-width:11;paint-order:stroke fill markers"
       id="path108"
       sodipodi:nodetypes="sscccccssccsscccccssccsccccccccccccccccccccccccccccccccccccccccccccc" />
    <rect
       style="fill:#ffffff;stroke:#000000;stroke-width:0;stroke-linecap:round;stroke-linejoin:round;paint-order:markers stroke fill"
       id="rect1"
       width="1"
       height="2"
       x="5"
       y="1"
       rx="1"
       ry="0" />
    <rect
       style="display:inline;fill:#ffffff;stroke:#000000;stroke-width:0;stroke-linecap:round;stroke-linejoin:round;paint-order:markers stroke fill"
       id="rect1-4"
       width="1"
       height="2"
       x="10"
       y="1"
       rx="1"
       ry="0" />
  </g>
</svg>
