<?xml version="1.0" encoding="UTF-8" standalone="no"?>
<!-- Created with Inkscape (http://www.inkscape.org/) -->

<svg
   width="16"
   height="16"
   viewBox="0 0 16 16"
   version="1.1"
   id="svg1"
   xmlns="http://www.w3.org/2000/svg"
   xmlns:svg="http://www.w3.org/2000/svg">
  <defs
     id="defs1" />
  <g
     id="g16"
     style="display:inline">
    <path
       id="path12"
       style="display:inline;stroke:#000000;stroke-width:0;stroke-linecap:round;stroke-linejoin:round;paint-order:markers stroke fill"
       d="M 2,0 C 0.892,0 0,0.892 0,2 v 12 c 0,1.108 0.892,2 2,2 h 12 c 1.108,0 2,-0.892 2,-2 V 2 C 16,0.892 15.108,0 14,0 Z M 5,1 H 6 V 3 H 5 Z m 5,0 h 1 V 3 H 10 Z M 1,4 H 5 V 7 H 1 Z m 5,0 h 9 V 5 H 6 Z m 0,2 h 9 V 7 H 6 Z M 1,8 h 4 v 3 H 1 Z m 5,0 h 9 V 9 H 6 Z m 0,2 h 9 v 1 H 6 Z m -5,2 h 4 v 3 H 1 Z m 5,0 h 9 v 1 H 6 Z m 0,2 h 9 v 1 H 6 Z" />
  </g>
</svg>
