<?xml version="1.0" encoding="UTF-8" standalone="no"?>
<!-- Created with Inkscape (http://www.inkscape.org/) -->

<svg
   width="16"
   height="16"
   viewBox="0 0 16 16"
   version="1.1"
   id="svg1"
   xmlns="http://www.w3.org/2000/svg"
   xmlns:svg="http://www.w3.org/2000/svg">
  <defs
     id="defs1" />
  <path
     id="path5"
     stroke="none"
	 fill="{ButtonText}"
     d="M 5,4 C 3.892,4 3,4.892 3,6 v 8 c 0,1.108 0.892,2 2,2 h 9 c 1.108,0 2,-0.892 2,-2 V 6 C 16,4.892 15.108,4 14,4 Z M 4,5 h 11 v 7 H 4 Z M 2,0 C 0.892,0 0,0.892 0,2 v 8 c 0,1.108 0.892,2 2,2 H 3 V 8 H 1 V 1 h 11 v 3 h 1 V 2 C 13,0.892 12.108,0 11,0 Z" />
</svg>
