<?xml version="1.0" encoding="UTF-8" standalone="no"?>
<!-- Created with Inkscape (http://www.inkscape.org/) -->

<svg
   width="16"
   height="16"
   viewBox="0 0 16 16"
   version="1.1"
   id="svg1"
   xmlns="http://www.w3.org/2000/svg"
   xmlns:svg="http://www.w3.org/2000/svg">
  <defs
     id="defs1" />
  <g
     inkscape:label="Layer 1"
     inkscape:groupmode="layer"
     id="layer1">
    <path
       id="path1"
       style="stroke:#000000;stroke-width:0;stroke-linecap:round;stroke-linejoin:round;paint-order:markers stroke fill"
       d="M 11.5,3 C 11.223,3 11,3.446 11,4 v 11 c 0,0.554 0.223,1 0.5,1 0.277,0 0.5,-0.446 0.5,-1 V 4 C 12,3.446 11.777,3 11.5,3 Z M 2,0 C 0.892,0 0,0.892 0,2 v 12 c 0,1.108 0.892,2 2,2 h 9.5 C 11.223,16 11,15.554 11,15 H 5 v -2 h 6 V 12 H 5 v -2 h 6 V 9 H 5 V 7 h 6 V 6 H 5 V 4 h 6 C 11,3.446 11.223,3 11.5,3 H 11 V 1 h 1 V 3 H 11.5 C 11.777,3 12,3.446 12,4 h 3 v 2 h -3 v 1 h 3 v 2 h -3 v 1 h 3 v 2 h -3 v 1 h 3 v 2 h -3 c 0,0.554 -0.223,1 -0.5,1 H 14 c 1.108,0 2,-0.892 2,-2 V 2 C 16,0.892 15.108,0 14,0 Z M 4,1 H 5 V 3 H 4 Z M 1,4 H 4 V 6 H 1 Z M 1,7 H 4 V 9 H 1 Z m 0,3 h 3 v 2 H 1 Z m 0,3 h 3 v 2 H 1 Z" />
  </g>
</svg>
