<?xml version="1.0" encoding="UTF-8" standalone="no"?>
<!-- Created with Inkscape (http://www.inkscape.org/) -->

<svg
   width="14"
   height="11"
   viewBox="0 0 14 11"
   version="1.1"
   id="svg1"
   sodipodi:docname="item_masterclip_v02.svg"
   inkscape:version="1.4.2 (ebf0e940, 2025-05-08)"
   xmlns:inkscape="http://www.inkscape.org/namespaces/inkscape"
   xmlns:sodipodi="http://sodipodi.sourceforge.net/DTD/sodipodi-0.dtd"
   xmlns="http://www.w3.org/2000/svg"
   xmlns:svg="http://www.w3.org/2000/svg">
  <sodipodi:namedview
     id="namedview1"
     pagecolor="#ffffff"
     bordercolor="#000000"
     borderopacity="0.25"
     inkscape:showpageshadow="2"
     inkscape:pageopacity="0.0"
     inkscape:pagecheckerboard="true"
     inkscape:deskcolor="#d1d1d1"
     showgrid="true"
     inkscape:zoom="24.773198"
     inkscape:cx="4.9448602"
     inkscape:cy="6.1356633"
     inkscape:window-width="1368"
     inkscape:window-height="859"
     inkscape:window-x="214"
     inkscape:window-y="264"
     inkscape:window-maximized="0"
     inkscape:current-layer="svg1">
    <inkscape:grid
       id="grid1"
       units="px"
       originx="0"
       originy="0"
       spacingx="1"
       spacingy="1"
       empcolor="#0099e5"
       empopacity="0.30196078"
       color="#0099e5"
       opacity="0.14901961"
       empspacing="2"
       enabled="true"
       visible="true" />
  </sodipodi:namedview>
  <defs
     id="defs1" />
  <g
     id="layer1" />
  <path
     d="M 2,1 C 1.446,1 1,1.446 1,2 v 7 c 0,0.554 0.446,1 1,1 h 10 c 0.554,0 1,-0.446 1,-1 V 2 C 13,1.446 12.554,1 12,1 Z M 2,2 H 3 V 3 H 2 Z m 9,0 h 1 V 3 H 11 Z M 2,4 H 3 V 5 H 2 Z m 9,0 h 1 V 5 H 11 Z M 2,6 H 3 V 7 H 2 Z m 9,0 h 1 V 7 H 11 Z M 2,8 H 3 V 9 H 2 Z m 9,0 h 1 v 1 h -1 z"
     style="paint-order:markers fill stroke"
     id="path11" />
</svg>
