<?xml version="1.0" encoding="UTF-8" standalone="no"?>
<!-- Created with Inkscape (http://www.inkscape.org/) -->

<svg
   width="16"
   height="16"
   viewBox="0 0 16 16"
   version="1.1"
   id="svg1"
   xmlns="http://www.w3.org/2000/svg"
   xmlns:svg="http://www.w3.org/2000/svg">
  <defs
     id="defs1" />
  <g
     id="layer1">
    <path
       id="path1"
       style="paint-order:markers fill stroke;fill:{WindowText};"
       d="M 8 2 A 6 6 0 0 0 2 8 A 6 6 0 0 0 8 14 A 6 6 0 0 0 14 8 A 6 6 0 0 0 8 2 z M 8 4 A 4 4 0 0 1 12 8 A 4 4 0 0 1 8 12 A 4 4 0 0 1 4 8 A 4 4 0 0 1 8 4 z " />
    <ellipse
       style="paint-order:markers fill stroke;stroke-opacity:1;stroke-width:1;stroke:none;fill-opacity:1;fill:{WindowText};"
       id="path3"
       cx="8"
       cy="8"
       rx="2"
       ry="2.0000002" />
  </g>
</svg>
