<?xml version="1.0" encoding="UTF-8" standalone="no"?>
<!-- Created with Inkscape (http://www.inkscape.org/) -->

<svg
   width="16"
   height="16"
   viewBox="0 0 16 16"
   version="1.1"
   id="svg1"
   xmlns="http://www.w3.org/2000/svg"
   xmlns:svg="http://www.w3.org/2000/svg">
  <g
     id="g16"
     style="display:inline">
    <path
       d="M 1,0 C 0.446,0 0,0.446 0,1 v 2 1 2.5 3 3 2.5 c 0,0.554 0.446,1 1,1 h 2 1 11 c 0.554,0 1,-0.446 1,-1 V 12.5 9.5 6.5 4 3 1 C 16,0.446 15.554,0 15,0 H 4 3 Z M 1,1 H 5 V 5 H 1 Z m 5,0 h 9 V 2 H 6 Z m 0,2 h 9 V 5 H 6 Z M 1,6 h 4 v 4 H 1 Z m 5,0 h 9 V 7 H 6 Z m 0,2 h 9 v 2 H 6 Z m -5,3 h 4 v 4 H 1 Z m 5,0 h 9 v 1 H 6 Z m 0,2 h 9 v 2 H 6 Z"
       style="display:inline;stroke-width:11;paint-order:stroke fill markers"
       id="path108" />
  </g>
</svg>
